<svg xmlns="http://www.w3.org/2000/svg" width="900" height="1100" viewBox="0 0 900 1100"><defs><pattern id="grain" width="50" height="50" patternUnits="userSpaceOnUse"><path d="M0 49H50" stroke="#bba98e" stroke-opacity=".13"/></pattern></defs><rect width="900" height="1100" fill="#eee9dc"/><text x="70" y="77" font-size="12" letter-spacing="4" fill="#8b8f74" font-family="sans-serif">THE EVERYDAY LIVING EDIT</text><text x="70" y="144" font-size="35" fill="#525e41" font-family="Microsoft JhengHei,sans-serif">讓日常，多一點舒適。</text><text x="70" y="181" font-size="13" fill="#959780" font-family="Microsoft JhengHei,sans-serif">家居配置示意 · 非真實產品或優惠</text><path d="M0 745H900V1100H0Z" fill="#dbd0ba"/><path d="M0 745H900V1100H0Z" fill="url(#grain)"/><rect x="578" y="275" width="200" height="340" fill="#dadcca"/><rect x="589" y="286" width="178" height="318" fill="#e9ebdf"/><path d="M678 286V604M589 441H767" stroke="#c9ceba" stroke-width="8"/><path d="M591 602L730 748H850L768 604" fill="#f5f0db" opacity=".7"/><ellipse cx="420" cy="851" rx="335" ry="103" fill="#c5c3a7"/><ellipse cx="420" cy="851" rx="305" ry="89" fill="none" stroke="#dad9be" stroke-width="4"/><path d="M83 851Q410 680 754 850M102 874Q420 716 742 875M143 902Q419 753 705 902" fill="none" stroke="#b4b395" stroke-width="2"/><rect x="160" y="581" width="434" height="177" rx="30" fill="#d1cab4"/><rect x="176" y="593" width="202" height="135" rx="26" fill="#e1d8c1"/><rect x="384" y="593" width="191" height="135" rx="26" fill="#e6ddc8"/><rect x="141" y="700" width="470" height="90" rx="24" fill="#ded5bd"/><rect x="113" y="663" width="79" height="132" rx="25" fill="#e8dfca"/><rect x="562" y="663" width="79" height="132" rx="25" fill="#e8dfca"/><path d="M157 790V827M596 790V827" stroke="#847961" stroke-width="13"/><rect x="207" y="629" width="83" height="76" rx="14" transform="rotate(-8 207 629)" fill="#9ba387"/><rect x="470" y="632" width="75" height="72" rx="12" transform="rotate(10 470 632)" fill="#bba887"/><path d="M354 861L344 918M521 861L533 918" stroke="#9b8769" stroke-width="11"/><ellipse cx="438" cy="843" rx="132" ry="42" fill="#ac9677"/><ellipse cx="438" cy="836" rx="132" ry="42" fill="#c7b18d"/><rect x="403" y="816" width="75" height="12" rx="2" fill="#f1ead8"/><rect x="414" y="805" width="65" height="11" rx="2" fill="#8c987d"/><path d="M480 759Q512 759 509 807H483Z" fill="#c5ccae"/><path d="M494 765V705M494 737Q465 697 470 682M494 726Q524 692 528 673" stroke="#7f8e62" stroke-width="5" fill="none"/><path d="M726 751V540" stroke="#738661" stroke-width="6"/><ellipse cx="705" cy="609" rx="20" ry="48" transform="rotate(-37 705 609)" fill="#7d926b"/><ellipse cx="746" cy="575" rx="20" ry="45" transform="rotate(30 746 575)" fill="#a4b294"/><ellipse cx="752" cy="653" rx="23" ry="50" transform="rotate(44 752 653)" fill="#8c9d79"/><ellipse cx="699" cy="676" rx="22" ry="47" transform="rotate(-44 699 676)" fill="#a3ad87"/><path d="M684 738H770L756 814H700Z" fill="#bb9f7e"/><rect x="258" y="315" width="152" height="186" fill="#b4ab92"/><rect x="270" y="327" width="128" height="161" fill="#eeeadc"/><circle cx="334" cy="386" r="32" fill="#bcab85"/><path d="M282 476V412Q334 377 386 449V476Z" fill="#8f9c7b"/><text x="70" y="1002" font-size="13" letter-spacing="3" fill="#746e59" font-family="sans-serif">WARM TONES. SIMPLE MOMENTS.</text><text x="70" y="1040" font-size="12" fill="#8d8169" font-family="Microsoft JhengHei,sans-serif">示例展示 · PRICERITE FRONTLINE</text><text x="798" y="1040" font-size="12" fill="#8d8169" font-family="sans-serif">02</text></svg>
